<svg width="171" height="307" viewBox="0 0 171 307" fill="none" xmlns="http://www.w3.org/2000/svg">
<path d="M16.3388 214.23C23.1447 217.296 31.1147 214.192 34.1408 207.297L52.3299 164.627L56.6444 164.627L56.6444 191.912L56.6444 199.341L56.6444 267.694C56.6444 275.239 62.6819 281.357 70.1302 281.357C77.5785 281.357 83.6159 275.24 83.6159 267.694L83.6159 286.869C83.6159 294.415 89.6534 300.533 97.1017 300.533C104.549 300.533 110.588 294.416 110.588 286.869L110.588 267.694C110.588 275.239 116.625 281.357 124.073 281.357C131.522 281.357 137.559 275.24 137.559 267.694L137.559 235.365C137.559 242.91 143.597 249.028 151.045 249.028C158.492 249.028 164.531 242.911 164.531 235.365L164.531 199.341L164.531 198.744L164.531 137.331C164.531 121.74 154.869 108.442 141.283 103.231L141.283 -12.3633L62.0963 -12.3633L62.0963 103.232C51.9988 107.105 44.0727 115.448 40.6663 125.876L40.5741 125.862L27.6868 154.748L9.49762 196.194C6.46983 203.089 9.53382 211.164 16.3388 214.23Z" fill="#FFCAB9"></path>
<path d="M118.11 267.694C118.11 271.365 116.673 274.691 114.348 277.146C115.427 278.285 116.699 279.229 118.11 279.936L118.11 267.694Z" fill="#FABBA7"></path>
<path d="M138.992 109.361C150.399 113.736 158.062 124.976 158.062 137.331L158.062 154.614C158.062 163.087 170.998 163.087 170.998 154.614L170.998 137.331C170.998 121.115 161.82 106.236 147.75 98.976L147.75 -14.9493C147.75 -18.5684 144.855 -21.5024 141.282 -21.5024C137.709 -21.5024 134.814 -18.5684 134.814 -14.9493L134.814 103.232C134.814 105.956 136.478 108.396 138.992 109.361Z" fill="black"></path>
<path d="M3.19385 208.999C5.10573 214.04 8.8415 218.024 13.7105 220.218C23.6459 224.692 35.72 219.826 40.0784 209.895L50.1759 186.207L50.1759 267.694C49.9017 281.534 64.5172 291.705 77.1475 286.619C78.6834 313.805 115.972 313.782 117.054 286.619C129.687 291.702 144.298 281.535 144.024 267.693L144.024 254.289C156.649 259.371 171.275 249.207 170.996 235.364L170.996 187.38C170.996 178.907 158.06 178.907 158.06 187.38L158.06 235.365C157.7 244.793 144.376 244.776 144.024 235.365L144.024 189.789C144.024 181.316 131.089 181.316 131.089 189.789C131.089 215.757 131.089 241.726 131.089 267.694C130.743 277.098 117.41 277.126 117.054 267.694L117.054 203.967C117.054 195.494 104.118 195.494 104.118 203.967L104.118 286.869C104.118 290.79 100.971 293.98 97.1002 293.98C93.2299 293.98 90.0822 290.791 90.0822 286.869L90.0822 203.967C90.0822 195.494 77.1466 195.494 77.1466 203.967L77.1466 267.694C77.1466 271.614 73.9981 274.804 70.1278 274.804C66.2574 274.804 63.1098 271.615 63.1098 267.694L63.1098 171.021C82.201 169.292 97.139 153.029 97.139 133.57C97.139 125.097 84.2034 125.097 84.2034 133.57C84.2034 151.942 67.7856 158.722 52.3275 158.073C49.7473 158.073 47.4129 159.627 46.3892 162.027L28.2277 204.634C26.1235 208.427 23.0353 209.631 18.9649 208.241C15.2196 206.109 14.0321 202.98 15.4033 198.855C25.6043 175.611 46.6712 128.036 46.6712 128.036C49.6533 119.452 56.2746 112.469 64.3826 109.36C66.8973 108.395 68.5608 105.956 68.5608 103.231L68.5608 -12.3633C68.5609 -15.9824 65.6659 -18.9165 62.0931 -18.9165C58.5202 -18.9165 55.6253 -15.9824 55.6253 -12.3633L55.6252 98.9865C46.0115 103.993 38.3174 112.841 34.567 123.41C24.1547 146.746 13.8545 170.13 3.58448 193.531C1.42078 198.465 1.2811 203.958 3.19385 208.999Z" fill="black"></path>
</svg>
