<svg width="170" height="307" viewBox="0 0 170 307" fill="none" xmlns="http://www.w3.org/2000/svg">
<path d="M2.19384 208.999C4.10572 214.04 7.8415 218.024 12.7105 220.218C22.6459 224.692 34.7199 219.826 39.0784 209.895L49.1759 186.207L49.1759 267.694C48.9017 281.534 63.5172 291.705 76.1475 286.619C77.6833 313.805 114.972 313.782 116.054 286.619C128.687 291.702 143.298 281.535 143.024 267.693L143.024 254.289C155.649 259.371 170.275 249.207 169.996 235.364L169.996 187.38C169.996 178.908 157.06 178.908 157.06 187.38L157.06 235.365C156.7 244.793 143.376 244.776 143.024 235.365L143.024 189.789C143.024 181.316 130.089 181.316 130.089 189.789C130.089 215.757 130.089 241.726 130.089 267.694C129.743 277.098 116.41 277.126 116.054 267.694L116.054 203.967C116.054 195.494 103.118 195.494 103.118 203.967L103.118 286.869C103.118 290.79 99.9705 293.98 96.1002 293.98C92.2299 293.98 89.0822 290.791 89.0822 286.869L89.0822 203.967C89.0822 195.494 76.1466 195.494 76.1466 203.967L76.1466 267.694C76.1466 271.614 72.9981 274.804 69.1278 274.804C65.2574 274.804 62.1098 271.615 62.1098 267.694L62.1098 171.021C81.201 169.292 96.139 153.029 96.139 133.57C96.139 125.097 83.2034 125.097 83.2034 133.57C83.2034 151.942 66.7856 158.722 51.3275 158.073C48.7473 158.073 46.4129 159.627 45.3892 162.027L27.2277 204.634C25.1235 208.427 22.0353 209.631 17.9649 208.241C14.2196 206.109 13.0321 202.98 14.4033 198.855C24.6043 175.611 45.6712 128.036 45.6712 128.036C48.6533 119.452 55.2746 112.469 63.3826 109.36C65.8973 108.395 67.5608 105.956 67.5608 103.231L67.5608 -12.3633C67.5608 -15.9824 64.6659 -18.9165 61.0931 -18.9165C57.5202 -18.9165 54.6252 -15.9824 54.6252 -12.3633L54.6252 98.9865C45.0115 103.993 37.3174 112.841 33.567 123.41C23.1547 146.746 12.8545 170.13 2.58448 193.531C0.420786 198.465 0.281106 203.958 2.19384 208.999Z" fill="black"/>
</svg>
